<svg width="66" height="84" viewBox="0 0 66 84" fill="none" xmlns="http://www.w3.org/2000/svg">
<path d="M15.91 31.858H29.91V45.858H15.91V31.858ZM15.91 83.55H29.91V69.555H15.91V83.55ZM31.61 83.55H45.61V69.555H31.61V83.55ZM15.91 30.15H29.91V16.154H15.91V30.15ZM0.210001 30.15H14.21V16.154H0.206001L0.210001 30.15ZM0.210001 14.45H14.21V0.449997H0.206001L0.210001 14.45ZM51.8 34.234V48.229H65.794V34.234H51.8ZM36.1 63.934H50.1V49.934H36.1V63.934ZM51.8 79.634H65.794V65.634H51.8V79.634ZM51.8 63.934H65.794V49.934H51.8V63.934ZM0.206001 83.55H14.206V69.555H0.206001V83.55ZM0.206001 67.85H14.206V54.154H0.206001V67.85Z" fill="white"/>
</svg>
